<?xml version="1.0" encoding="UTF-8"?>
<svg id="Capa_1" data-name="Capa 1" xmlns="http://www.w3.org/2000/svg" viewBox="0 0 366.04 72.48">
  <defs>
    <style>
      .cls-1 {
        fill: #00a458;
      }

      .cls-1, .cls-2, .cls-3, .cls-4, .cls-5, .cls-6, .cls-7, .cls-8, .cls-9, .cls-10, .cls-11, .cls-12, .cls-13, .cls-14, .cls-15, .cls-16, .cls-17, .cls-18, .cls-19 {
        stroke-width: 0px;
      }

      .cls-2 {
        fill: #01a65d;
      }

      .cls-3 {
        fill: #02a75d;
      }

      .cls-4 {
        fill: #00a860;
      }

      .cls-5 {
        fill: #00a761;
      }

      .cls-6 {
        fill: #03a75e;
      }

      .cls-7 {
        fill: #00a75d;
      }

      .cls-8 {
        fill: #00a75f;
      }

      .cls-9 {
        fill: #00a55b;
      }

      .cls-10 {
        fill: #00a85f;
      }

      .cls-11 {
        fill: #01a75f;
      }

      .cls-12 {
        fill: #00a65d;
      }

      .cls-13 {
        fill: #00a65c;
      }

      .cls-14 {
        fill: #00a459;
      }

      .cls-15 {
        fill: #0aa964;
      }

      .cls-16 {
        fill: #07a860;
      }

      .cls-17 {
        fill: #00a55a;
      }

      .cls-18 {
        fill: #00a861;
      }

      .cls-19 {
        fill: #00a559;
      }
    </style>
  </defs>
  <path class="cls-15" d="M189.3,31.89c0,2.66,0,5.32,0,7.98-.45.41-.96.69-1.55.84-7.9.33-15.81.04-23.7.16-4.44.56-3.62,3.09-2.18,5.85l-.26.07-.04-.27c1.43,1.74,3.35.71,5.02.79,7.67.36,15.36-.46,23.03.45l-.05-.05c.64,2.54.58,5.07.03,7.61.05.31-.09.48-.39.52-11.51,1.09-23.05.2-34.58.44-1.94.04-3.96.49-5.84-.44-.31-.04-.44-.21-.39-.52-.57-13.42-.74-26.84.12-40.25,12.24-.06,24.49-.12,36.73-.16,2.27,0,4.3.46,5.01,3.04-.39.95-.39,1.96-.27,2.92.37,3.08-1.1,4.06-4,4.03-6.42-.08-12.85-.05-19.27,0-1.78.01-3.64-.35-5.29.7-.44,1.77-1.15,3.56.43,5.16l-.26.06-.03-.26c1.63,1.7,3.7.7,5.54.79,7.4.36,14.82-.5,22.21.54Z"/>
  <path class="cls-15" d="M100.55,24.71c-1.33-.5-1.94-1.46-1.88-2.87.48-1.98.7-3.96,0-5.94.69-1.85,2.27-.94,3.4-.95,11.79-.08,23.58-.08,35.38-.04,5.55.02,8.44,4.21,6.59,9.32-.32.88-.74,1.44-1.7,1.46-.66.02-1.33,0-1.99.02-3.79.11-8.93-1.23-11.04.71-2.76,2.54-.61,7.8-.96,11.88-.53,6.17,1.02,12.44-.83,18.55-1.15-9.55-.14-19.12-.53-28.11,0,7.42-.28,15.43.1,23.41.25,5.11-2.8,4.71-6.06,4.68-3.17-.03-6.26.54-6.12-4.58.25-8.77.4-17.57-.12-26.34-4.6-2.17-9.52-.47-14.24-1.2Z"/>
  <path class="cls-15" d="M288.53,54.66c3.71-10.57,7.42-21.14,11.11-31.72q2.8-8.03,11.41-8.03,6.04,0,4.09,5.69c-3.57,10.48-7.09,20.98-10.7,31.44-.61,1.78-.67,4.03-3.07,4.69-3.26-.88-6.59-.12-9.87-.43-1.13-.11-2.81.82-3.15-1.3,0,0,.17-.33.17-.33Z"/>
  <path class="cls-15" d="M50.68,52.87c3.67-11.46,7.28-22.94,11.76-34.12.61-.99,2.35-1.23,1.95-2.9,3.76-1.96,7.78-.56,11.67-.9,1.91-.17,1.66,1.18,1.24,2.32-4.72,12.85-8.32,26.09-13.73,38.69-2.85.89-5.77.86-8.72.9-2.84.04-4.36-1-4.17-3.98Z"/>
  <path class="cls-15" d="M79.67,18.93c.22-3.17,2.4-3.97,5.05-3.99,2.92-.03,5.84.09,8.76.15.88,13.62.71,27.25.1,40.88-4.39.58-8.78.61-13.17-.02-.86-9.54-.13-19.1-.4-28.64-.08-2.79.41-5.6-.34-8.36Z"/>
  <path class="cls-15" d="M337.22,49.81c-.12,1.32-.64,2.42-1.75,3.21-1.12.16-1.76.78-1.89,1.91-5.94,3.87-7.11,3.55-8.95-2.63-1.85-6.19-3.24-12.55-5.58-18.55-2.1-5.38-1.75-10.26.48-15.31.86-1.95,1.35-3.82,4.34-3.64,2.73.16,4.16.9,4.99,3.63,2.62,8.54,5.5,17.01,8.28,25.5-.39,1.97-.51,3.93.07,5.89Z"/>
  <path class="cls-15" d="M38.38,56.17c-3.88-9.22-6.61-18.84-9.62-28.35.45-1.63.51-3.27-.04-4.89.33-2.66,1.95-4.49,4-5.96,4.68-3.37,7.07-2.55,8.67,2.89,1.86,6.31,3.29,12.79,5.67,18.89,2.3,5.9,1.7,11.13-1.36,16.37-2.22,1.85-4.83,1.01-7.32,1.05Z"/>
  <path class="cls-5" d="M114.5,24.88c1.72,1.64.94,3.76.96,5.66.09,7.29.15,14.59,0,21.88-.09,4.58,3.17,3.35,5.54,3.36,2.39.01,5.68,1.18,5.51-3.39-.16-4.3-.03-8.62-.03-12.93,0-4.12,0-8.23,1.01-12.35,0,9.91,0,19.83,0,29.74,0,0,0,0,0,0-4.38.77-8.76.72-13.15.04-.52-10.19-.41-20.38-.03-30.57-.18-.33-.26-.69-.24-1.06.14-.12.27-.25.41-.37Z"/>
  <path class="cls-18" d="M194.63,15.91c.98.19,1.11.67,1.1,1.71-.16,11.28.03,22.57-.37,33.84-.19,5.34,3.12,4.33,6.15,4.38,3.14.05,6.31.72,6.1-4.5-.13-3.39-1.69-7.23,1.18-10.38-.22,5.29-.43,10.57-.65,15.86-4.45.83-8.9.83-13.35,0-.67-13.63-.35-27.27-.16-40.91Z"/>
  <path class="cls-10" d="M160.48,25.88c1.05-2.32,3.14-1.99,5.1-2,5.43,0,10.87-.3,16.27.09,4.78.35,8.29-.25,8.39-6.02.11.97.17,1.95.32,2.91.58,3.71-.66,5.08-4.7,4.94-8.03-.28-16.09.08-24.13.17-.46.48-.88.45-1.25-.1Z"/>
  <path class="cls-14" d="M93.53,55.83c-.01-13.59-.03-27.17-.04-40.76.82.05,1.07.59,1.06,1.3-.08,13.15-.16,26.3-.24,39.45-.26.37-.52.37-.78,0Z"/>
  <path class="cls-6" d="M148.76,55.85c13.47,0,26.95,0,40.42,0-.94,1.57-2.55,1.42-3.99,1.43-10.81.04-21.62.04-32.43,0-1.45,0-3.06.15-3.99-1.43Z"/>
  <path class="cls-1" d="M148.49,15.08c-.04,13.42-.08,26.83-.12,40.25-.98-.65-.94-1.68-.95-2.67,0-11.92,0-23.84,0-35.77,0-.78-.12-1.7,1.07-1.82Z"/>
  <path class="cls-18" d="M79.67,18.93c1.59,2.07.78,4.47.8,6.7.1,10.07.04,20.14.05,30.21-.29.37-.58.37-.87,0,0-12.3.02-24.61.02-36.91Z"/>
  <path class="cls-7" d="M188.46,39.87c.28,0,.55,0,.83,0-.12,2.61-2.16,1.5-3.33,1.53-6.26.11-12.54.31-18.78-.04-4.25-.24-6.31.83-5.32,5.37-2.45-2.53-2.05-4.8.62-6.86,8.66.84,17.32.84,25.98,0Z"/>
  <path class="cls-16" d="M50.68,52.87c1.04,3.75,4.1,2.91,6.76,2.96,2.04.05,4.09.08,6.13.12-4.02,2.89-8.63,1.48-12.83,1.16-2.7-.2-.32-2.75-.06-4.24Z"/>
  <path class="cls-12" d="M189.3,31.89c-8.43,0-16.86-.02-25.29-.03-1.05,0-1.98-.21-2.45-1.3,7.8.1,15.6.13,23.39.35,1.44.04,3.32-1.11,4.36.97Z"/>
  <path class="cls-1" d="M189.6,47.76c-8.05.03-16.1.08-24.15.07-1.4,0-3.04.46-3.89-1.3,7.85.09,15.71.13,23.56.31,1.5.04,3.31-.86,4.49.92Z"/>
  <path class="cls-3" d="M79.65,55.84c.29,0,.58,0,.87,0,4.34,0,8.67,0,13.01,0,.26,0,.52,0,.78,0-4.89,2.31-9.77,2.5-14.66,0Z"/>
  <path class="cls-15" d="M194.79,56.82c4.45,0,8.9,0,13.35,0-4.45.97-8.9.97-13.35,0Z"/>
  <path class="cls-4" d="M100.55,24.71c4.67-1.21,9.32-1.52,13.95.17,0,0,0,0,0,0-4.41.81-8.84.68-13.26.1h-.4s-.29-.27-.29-.27Z"/>
  <path class="cls-15" d="M101.24,24.99c4.42-.03,8.84-.07,13.26-.1-.05.48-.11.95-.16,1.43-4.24-1.68-8.88.58-13.1-1.33Z"/>
  <path class="cls-15" d="M114.36,56.89c4.38-.01,8.76-.03,13.15-.04-4.38.91-8.76.86-13.15.04Z"/>
  <path class="cls-13" d="M38.38,56.17c2.44-.35,4.88-.7,7.32-1.05-1.92,3.95-4.65,2.31-7.32,1.05Z"/>
  <path class="cls-17" d="M240.24,31.83c-1.27-2.62-1.25-5.25-.02-7.88.81,2.63.83,5.25.02,7.88Z"/>
  <path class="cls-2" d="M64.39,15.85l1.3.49c-1.12.76-1.42,2.62-3.25,2.41-.07-1.45.51-2.46,1.95-2.9Z"/>
  <path class="cls-19" d="M189.58,55.33c0-2.54-.02-5.07-.03-7.61,1.75,2.53,1.44,5.07.03,7.61Z"/>
  <path class="cls-4" d="M98.67,15.91c2.35,1.98.6,3.96,0,5.94,0-1.98,0-3.96,0-5.94Z"/>
  <path class="cls-11" d="M284.45,38.88c-.22-2.25.63-3.38,3.03-2.86-.62,1.36-1.58,2.38-3.03,2.86Z"/>
  <path class="cls-9" d="M337.22,49.81c-1.29-1.95-1.21-3.91-.07-5.89.69,1.95.76,3.91.07,5.89Z"/>
  <path class="cls-7" d="M160.48,25.88c.42.03.84.06,1.25.1.03,1.59.07,3.19.1,4.78-2.29-1.12-1.01-3.22-1.35-4.88Z"/>
  <path class="cls-8" d="M333.58,54.92c-.69-1.94-.03-2.55,1.89-1.91-.31.96-.95,1.58-1.89,1.91Z"/>
  <path class="cls-17" d="M28.72,22.93c1.22,1.62,1.2,3.25.04,4.89-.57-1.63-.54-3.26-.04-4.89Z"/>
  <path class="cls-15" d="M265.2,41.01h0s0,0,0,0c4.43,4.14,5.45,10.46,9.5,14.84,4.55-.38,9.19.83,13.66-.86,0,0,0,0,0,0,.05-.11.11-.22.16-.33-2.61-4.38-5.22-8.77-7.87-13.21,1.38-.93,2.58-1.75,3.79-2.57.61-1.38,1.5-2.46,3.03-2.86,3.65-4.28,3.94-9.15,1.58-13.9-2.47-4.99-7.17-7.08-12.58-7.15-9.65-.14-19.3.05-28.94-.12-2.91-.05-3.63.94-3.59,3.69.15,9.64.06,19.28.06,28.91,0,10.64,0,10.54,10.79,10.02,2.66-.13,3.33-1.06,3.38-3.55.08-4.28-.75-8.62.57-12.86,1.91-2.59,4.41-.81,6.65-.87.02,0,.1.29.07.42-.04.15-.17.27-.27.4ZM275.25,24.11c0,.15,0,.31,0,.46h-16.72c0-.15,0-.31,0-.46h16.72ZM259.87,30.88c-2.04,0-1.69-1.55-1.77-2.83-.1-1.61.51-2.48,2.24-2.44,2.48.05,4.97.01,7.46.01,0,.03,0,.05,0,.08,2.48,0,4.97-.05,7.45.02,1.57.04,2.53,1.03,2.5,2.53-.03,1.42-.89,2.58-2.46,2.61-5.13.07-10.27.05-15.41.03Z"/>
  <path class="cls-15" d="M233.08,55.89c2.02-.08,3.93-.02,5.14-2-1.85-3.32-3.64-6.68-5.58-9.95-1.07-1.8-1.52-2.83.96-4.11,3.19-1.63,5.9-4.12,6.64-8.01-.52-2.63-.48-5.25-.02-7.88-1.16-4.05-3.86-6.58-7.82-7.84-1.28,1.24-2.68.71-4.1,0,.79-.11,1.58-.21,2.37-.32h0c-11.94-1.64-23.9-1.03-35.87-.34-.06,0-.11.29-.17.45.79,10.89.19,21.8.32,32.69.11,8.66.02,8.54,8.8,8.29,3.22-.09,4.21-1.22,4.29-4.42.09-3.73-1.14-7.6.62-11.23-.03,0-.06,0-.09,0,2.35-2.47,5.18-1.22,7.87-.98.02,0,.05.29,0,.42-.05.14-.19.25-.29.38,1.29,2.07,2.5,4.2,3.89,6.2,2.18,3.14,2.71,7.39,6.44,9.48,2.02-1.69,4.41-.76,6.62-.84ZM225.28,24.91h-16.8l-.05-.04c5.54-2.18,11.22-.36,16.85.04ZM210.49,32.55c0-.14,0-.28,0-.42h13.73c0,.14,0,.28.01.42h-13.73ZM223.94,30.93c-5.12-.04-10.24-.06-15.36-.08-1.04-1.62-.81-3.27-.12-4.93,5.28-.1,10.55-.23,15.83-.29,1.86-.02,4.02.13,4,2.58-.02,2.72-2.28,2.75-4.35,2.73Z"/>
  <path class="cls-7" d="M208.47,25.91c.04,1.64.08,3.29.12,4.93-1.78-1.95-1.57-3.94-.15-5.97,0,0,.05.04.05.04,0,.33-.01.67-.02,1Z"/>
  <path class="cls-12" d="M188.46,39.87c-7.04,2.19-14.25.45-21.37.95-1.56.11-3.33.55-4.61-.95,8.66,0,17.32,0,25.98,0Z"/>
</svg>